<?xml version="1.0" encoding="UTF-8" standalone="no"?>
<!-- Created with Inkscape (http://www.inkscape.org/) -->

<svg
   version="1.1"
   id="svg567"
   xml:space="preserve"
   width="682.66669"
   height="682.66669"
   viewBox="0 0 682.66669 682.66669"
   xmlns="http://www.w3.org/2000/svg"
   xmlns:svg="http://www.w3.org/2000/svg"><defs
     id="defs571"><clipPath
       clipPathUnits="userSpaceOnUse"
       id="clipPath581"><path
         d="M 0,512 H 512 V 0 H 0 Z"
         id="path579" /></clipPath></defs><g
     id="g573"
     transform="matrix(1.3333333,0,0,-1.3333333,0,682.66667)"><g
       id="g575"><g
         id="g577"
         clip-path="url(#clipPath581)"><g
           id="g583"
           transform="translate(306.9067,316.2258)"><path
             d="m 0,0 c -14.762,18.776 -19.89,44.472 -11.353,68.662 21.344,60.473 118.723,119.612 118.723,119.612 0,0 38.685,-107.162 17.342,-167.635 -13.261,-37.573 -54.471,-57.282 -92.044,-44.021"
             style="fill:none;stroke:#000000;stroke-width:15;stroke-linecap:round;stroke-linejoin:round;stroke-miterlimit:10;stroke-dasharray:none;stroke-opacity:1"
             id="path585" /></g><g
           id="g587"
           transform="translate(373.9126,384.2581)"><path
             d="m 0,0 -85.8,-217.801 c -12.164,-30.878 -18.409,-63.77 -18.409,-96.958 v -61.999"
             style="fill:none;stroke:#000000;stroke-width:15;stroke-linecap:round;stroke-linejoin:round;stroke-miterlimit:10;stroke-dasharray:none;stroke-opacity:1"
             id="path589" /></g><g
           id="g591"
           transform="translate(228.4082,246.1177)"><path
             d="m 0,0 c 10.285,22.615 8.602,49.94 -6.805,71.666 -37.096,52.311 -146.952,82.507 -146.952,82.507 0,0 -7.844,-113.661 29.252,-165.972 23.048,-32.502 68.08,-40.165 100.582,-17.117"
             style="fill:none;stroke:#000000;stroke-width:15;stroke-linecap:round;stroke-linejoin:round;stroke-miterlimit:10;stroke-dasharray:none;stroke-opacity:1"
             id="path593" /></g><g
           id="g595"
           transform="translate(146.4155,295.709)"><path
             d="m 0,0 96.267,-125.898 c 16.901,-22.103 26.156,-49.104 26.369,-76.927 l 0.652,-85.384"
             style="fill:none;stroke:#000000;stroke-width:15;stroke-linecap:round;stroke-linejoin:round;stroke-miterlimit:10;stroke-dasharray:none;stroke-opacity:1"
             id="path597" /></g></g></g></g></svg>
