<svg id="Layer_1" enable-background="new 0 0 512 512" height="512" viewBox="0 0 512 512" width="512" xmlns="http://www.w3.org/2000/svg"><path d="m256 0c-141.159 0-256 114.841-256 256s114.841 256 256 256 256-114.841 256-256-114.841-256-256-256zm0 480c-123.514 0-224-100.486-224-224s100.486-224 224-224 224 100.486 224 224-100.486 224-224 224zm105.083-145.771c-3.141 4.218-7.963 6.446-12.847 6.446-3.322 0-6.672-1.03-9.542-3.167l-92.249-68.674c-4.055-3.02-6.445-7.777-6.445-12.834v-146.399c0-8.837 7.163-16 16-16s16 7.163 16 16v138.363l85.804 63.876c7.088 5.276 8.556 15.3 3.279 22.389z"/></svg>