<svg id="svg7064" height="512" viewBox="0 0 8.4666665 8.4666669" width="512" xmlns="http://www.w3.org/2000/svg" xmlns:svg="http://www.w3.org/2000/svg"><g id="layer1" transform="translate(0 -288.533)"><path id="path889" d="m15.996094 0c-4.682553 0-8.496094 3.821374-8.496094 8.5039062 0 3.0097798 1.5799321 5.6541398 3.949219 7.1640628-6.6122658 1.965253-11.449219 8.088847-11.449219 15.332031a1.0000999 1.0000999 0 0 0 1 1h30a1.0000999 1.0000999 0 0 0 1-1c0-7.244502-4.839009-13.367937-11.453125-15.332031 2.370683-1.510076 3.953125-4.154878 3.953125-7.1640628 0-4.6825322-3.821354-8.5039062-8.503906-8.5039062zm0 2c3.601671 0 6.503906 2.9022433 6.503906 6.5039062 0 3.6003878-2.900152 6.4939848-6.5 6.4960938-.001313.000001-.002593 0-.003906 0-3.601672 0-6.496094-2.894393-6.496094-6.4960938 0-3.6016629 2.894422-6.5039062 6.496094-6.5039062zm0 15c.001315 0 .002591.000001.003906 0 7.401112 0 13.380065 5.733669 13.900391 13h-27.8007816c.5202326-7.265038 6.4971954-12.99796 13.8964846-13z" opacity=".98" transform="matrix(.265 0 0 .265 0 288.533)" font-variant-ligatures="normal" font-variant-position="normal" font-variant-caps="normal" font-variant-numeric="normal" font-variant-alternates="normal" font-feature-settings="normal" text-indent="0" text-align="start" text-decoration-line="none" text-decoration-style="solid" text-decoration-color="rgb(0,0,0)" text-transform="none" text-orientation="mixed" white-space="normal" shape-padding="0" isolation="auto" mix-blend-mode="normal" solid-color="rgb(0,0,0)" solid-opacity="1" vector-effect="none" paint-order="normal"/></g></svg>